<?xml version="1.0" encoding="iso-8859-1"?>
<!-- Generator: Adobe Illustrator 19.0.0, SVG Export Plug-In . SVG Version: 6.00 Build 0)  -->
<svg version="1.1" id="Layer_1" xmlns="http://www.w3.org/2000/svg" xmlns:xlink="http://www.w3.org/1999/xlink" x="0px" y="0px"
	 viewBox="0 0 512 512" style="enable-background:new 0 0 512 512;" xml:space="preserve">
<path style="fill:#CCCCCC;" d="M371.897,418.109c0,0-48.688,24.492-48.688,50.434c0,0-34.302-26.697-18.926-51.672v-0.012
	C325.885,421.929,348.832,422.613,371.897,418.109z"/>
<g>
	<path style="fill:#EE4948;" d="M100.225,118.184c49.148,1.297,87.943,42.203,86.646,91.351c-0.318,12.11-3.054,23.584-7.712,33.996
		c-12.547-32.545-43.701-56.023-80.739-57.002c-37.038-0.979-69.383,20.824-83.639,52.662c-4.104-10.648-6.226-22.251-5.908-34.361
		C10.171,155.682,51.077,116.886,100.225,118.184z"/>
	<path style="fill:#EE4948;" d="M179.16,243.531c-34.868,0.873-67.449,22.31-80.821,56.872
		c-13.384,34.55-3.726,72.343,21.461,96.469c-11.403,0.283-23.041-1.615-34.338-5.99c-45.858-17.747-68.64-69.312-50.882-115.159
		c17.747-45.858,69.312-68.64,115.159-50.894C161.036,229.204,170.929,235.642,179.16,243.531z"/>
</g>
<path style="fill:#F2F2F2;" d="M179.16,243.542c0,0,53.252,22.18,132.257-3.762c65.221-21.414,44.856-93.91,35.765-118.555
	c-0.13-0.354-0.259-0.696-0.389-1.038c-7.193-19.115-2.099-40.988,13.572-54.089c6.863-5.743,15.424-9.669,25.093-10.907
	c12.004-1.533,23.76,1.58,33.265,8.007c4.033,2.724,7.665,6.037,10.731,9.858c4.068,5.047,7.169,10.955,8.95,17.499
	c1.828,6.71,2.17,13.431,1.238,19.822c-0.802,5.589-2.571,10.943-5.177,15.825c7.476,5.283,14.504,11.179,21.001,17.664l3.773,4.363
	c0.991,1.144,2.075,2.17,3.243,3.054c18.407,20.777,31.708,46.542,37.533,75.715c17.593,88.156-39.809,173.871-128.118,191.11
	c-23.065,4.505-46.012,3.821-67.614-1.25c-59.407-13.891-108.662-60.858-122.199-124.026
	C178.523,276.182,177.65,259.615,179.16,243.542z"/>
<g>
	<path style="fill:#CCCCCC;" d="M500.015,226.997c-5.825-29.173-19.126-54.938-37.533-75.715c-1.167-0.884-2.252-1.91-3.243-3.054
		l-3.773-4.363c-6.497-6.486-13.525-12.381-21.001-17.664c2.606-4.882,4.375-10.235,5.177-15.825
		c0.932-6.391,0.59-13.113-1.238-19.822c-1.781-6.544-4.882-12.452-8.95-17.499c-3.066-3.821-6.698-7.134-10.731-9.858
		c-9.504-6.427-21.261-9.54-33.265-8.007c-2.492,0.32-4.907,0.823-7.24,1.485c4.99,1.429,9.711,3.639,13.976,6.522
		c4.033,2.724,7.665,6.037,10.731,9.858c4.068,5.047,7.169,10.955,8.95,17.499c1.828,6.71,2.17,13.431,1.238,19.822
		c-0.802,5.589-2.571,10.943-5.177,15.825c7.476,5.283,14.504,11.179,21.001,17.664l3.773,4.363c0.991,1.144,2.075,2.17,3.243,3.054
		c18.407,20.777,31.708,46.542,37.533,75.715c17.593,88.156-39.809,173.87-128.118,191.11c-5.888,1.15-11.767,1.957-17.619,2.444
		c14.449,1.196,29.273,0.461,44.15-2.444C460.206,400.868,517.609,315.153,500.015,226.997z"/>
	<path style="fill:#CCCCCC;" d="M222.694,251.96c-27.508-1.744-43.534-8.417-43.534-8.417c-0.203,2.163-0.355,4.336-0.471,6.515
		C190.131,251.85,205.016,253.038,222.694,251.96z"/>
</g>
<path style="fill:#FED159;" d="M490.452,85.308l-38.783,19.138l-12.028,5.931c0.932-6.391,0.59-13.113-1.238-19.822
	c-1.781-6.544-4.882-12.452-8.95-17.499C429.453,73.056,462.152,67.62,490.452,85.308z"/>
<g>
	<path style="fill:#EE4948;" d="M486.773,125.542c9.905,5.943,10.224,20.199,0.578,26.579c-3.632,2.394-7.747,3.561-11.839,3.561
		c-4.634,0-9.245-1.498-13.03-4.398c-2.264-2.547-4.599-5.023-7.016-7.417c-6.497-6.486-13.525-12.381-21.001-17.664
		c2.606-4.882,4.375-10.235,5.177-15.825l12.028-5.931L486.773,125.542z"/>
	<path style="fill:#EE4948;" d="M346.792,120.188c0.13,0.342,0.259,0.684,0.389,1.038l-0.79,0.283
		c-2.535,0.802-5.247,1.238-8.054,1.238c-14.811,0-26.826-12.004-26.826-26.815c0-12.735,8.879-23.383,20.777-26.131
		c-1.356-3.207-2.099-6.721-2.099-10.424c0-14.811,12.004-26.815,26.815-26.815c6.238,0,11.98,2.134,16.532,5.707
		c2.747-11.886,13.395-20.754,26.119-20.754c14.811,0,26.815,12.016,26.815,26.826c0,7.358-2.948,14.009-7.747,18.855
		c-9.504-6.427-21.261-9.54-33.265-8.007c-9.669,1.238-18.23,5.165-25.093,10.907C344.693,79.2,339.599,101.074,346.792,120.188z"/>
</g>
<path style="fill:#CCCCCC;" d="M361.294,287.996c47.613-37.122,108.08,28.102,66.711,72.075c-0.553,0.587-1.12,1.172-1.7,1.753
	c-27.213,27.213-119.581,42.598-188.747-6.741c-3.18-2.269-2.08-7.261,1.755-8.008c21.626-4.205,72.73-16.027,93.837-37.135
	L361.294,287.996z"/>
<path style="fill:#EE4948;" d="M370.138,268.541c47.613-37.122,108.08,28.102,66.711,72.075c-0.553,0.587-1.12,1.172-1.7,1.753
	c-28.3,28.3-127.069,43.809-196.924-12.971c0,0,76.647-11.792,103.768-38.913L370.138,268.541z"/>
<path d="M308.659,231.378c-4.641,1.524-7.167,6.521-5.644,11.161c1.523,4.64,6.518,7.168,11.162,5.644
	c20.946-6.877,35.841-19.212,44.271-36.663c6.665-13.793,15.141-44.264-2.959-93.325l-0.419-1.121
	c-5.997-15.934-1.59-33.693,10.971-44.192c5.803-4.856,12.905-7.939,20.537-8.917c9.487-1.211,19.143,1.118,27.195,6.562
	c3.35,2.263,6.305,4.976,8.796,8.08c3.424,4.25,5.881,9.05,7.301,14.274c1.462,5.37,1.805,10.828,1.016,16.242
	c-0.651,4.539-2.072,8.884-4.224,12.916c-2.099,3.933-0.943,8.814,2.698,11.387c7.101,5.019,13.782,10.637,19.882,16.728
	c2.206,2.184,4.436,4.541,6.619,6.996c17.894,20.197,30.162,44.95,35.48,71.581c1.791,8.976,2.79,18.126,2.97,27.195
	c0.094,4.824,4.035,8.669,8.838,8.669c0.059,0,0.119,0,0.178-0.001c4.883-0.097,8.764-4.133,8.668-9.017
	c-0.2-10.111-1.314-20.309-3.31-30.309c-4.422-22.147-13.163-43.131-25.605-61.722c3.224-0.834,6.313-2.18,9.146-4.048
	c7.079-4.681,11.193-12.541,11.007-21.024c-0.185-8.482-4.639-16.151-11.906-20.513l-21.223-12.753l24.259-11.969
	c2.875-1.42,4.758-4.284,4.918-7.488c0.162-3.203-1.426-6.243-4.146-7.942c-24.319-15.2-51.181-14.946-62.122-14.049
	c-0.702-0.731-1.419-1.447-2.159-2.14c2.903-5.227,4.456-11.133,4.456-17.276c0-19.669-15.996-35.67-35.658-35.67
	c-12.826,0-24.23,6.702-30.53,17.178c-3.868-1.399-7.977-2.132-12.121-2.132c-19.662,0-35.657,15.996-35.657,35.658
	c0,1.682,0.116,3.345,0.343,4.987c-11.528,6.033-19.023,18.005-19.023,31.568c0,19.662,16.002,35.658,35.67,35.658
	c1.007,0,2.009-0.052,3.007-0.136c5.624,17.604,12.559,48.813,1.178,72.371C336.173,216.968,325.094,225.981,308.659,231.378z
	 M482.223,133.125c2.929,1.758,3.304,4.596,3.329,5.737c0.025,1.14-0.224,3.994-3.068,5.875c-2.087,1.375-4.497,2.101-6.973,2.101
	c-2.534,0-5.021-0.775-7.116-2.202c-2.218-2.467-4.467-4.838-6.681-7.029c-5.079-5.068-10.532-9.857-16.277-14.292
	c0.84-2.268,1.514-4.592,2.058-6.951l3.755-1.852L482.223,133.125z M448.505,96.142c-0.342-2.648-0.855-5.287-1.568-7.909
	c-0.663-2.433-1.495-4.795-2.461-7.094c7.046,0.203,16.144,1.23,25.601,4.361L448.505,96.142z M320.355,95.931
	c0-8.418,5.725-15.621,13.924-17.513c2.545-0.587,4.699-2.27,5.887-4.595c1.187-2.325,1.286-5.058,0.27-7.463
	c-0.929-2.2-1.401-4.549-1.401-6.982c0-9.909,8.061-17.971,17.97-17.971c4.059,0,7.888,1.321,11.073,3.821
	c2.382,1.868,5.549,2.39,8.403,1.383c2.852-1.006,4.993-3.401,5.675-6.349c1.891-8.185,9.089-13.901,17.501-13.901
	c9.909,0,17.971,8.067,17.971,17.983c0,2.527-0.532,4.969-1.516,7.214c-9.877-4.705-20.889-6.528-31.775-5.139
	c-10.994,1.408-21.245,5.868-29.642,12.894c-15.796,13.206-22.795,34.147-18.881,54.391
	C327.091,112.47,320.355,104.981,320.355,95.931z"/>
<path d="M502.934,271.594c-4.844-0.65-9.293,2.75-9.942,7.59c-8.752,65.274-58.098,117.614-122.791,130.244
	c-21.323,4.164-42.823,3.767-63.905-1.182c-57.834-13.523-103.197-59.552-115.565-117.264c-2.515-11.762-3.643-23.685-3.39-35.577
	c10.211,2.683,26.797,5.833,48.407,5.833c14.759,0,31.863-1.47,50.868-5.562c4.775-1.028,7.812-5.732,6.784-10.508
	c-1.029-4.776-5.733-7.806-10.508-6.784c-31.478,6.778-57.071,5.602-72.999,3.421c-8.051-1.103-14.49-2.562-19.106-3.815
	c3.016-9.084,4.672-18.539,4.927-28.224c1.423-53.951-41.307-99.002-95.253-100.426c-26.14-0.67-50.971,8.839-69.94,26.83
	c-18.971,17.992-29.798,42.293-30.487,68.424c-0.342,12.991,1.843,25.7,6.496,37.774c1.284,3.332,4.447,5.566,8.017,5.661
	c3.572,0.061,6.846-1.968,8.306-5.227c8.05-17.979,22.382-32.34,40.355-40.437c4.453-2.006,6.436-7.243,4.43-11.695
	c-2.006-4.454-7.245-6.437-11.696-4.43c-15.01,6.761-27.937,17.106-37.752,29.996c-0.416-3.687-0.574-7.417-0.475-11.176
	c0.565-21.408,9.436-41.316,24.977-56.057c15.542-14.74,35.916-22.566,57.3-21.982c44.197,1.166,79.206,38.076,78.041,82.277
	c-0.099,3.745-0.453,7.448-1.058,11.097c-17.45-25.677-46.318-41.866-78.319-42.711c-5.061-0.132-10.142,0.123-15.119,0.761
	c-4.844,0.62-8.27,5.052-7.648,9.896c0.62,4.845,5.047,8.267,9.897,7.649c4.081-0.524,8.252-0.732,12.405-0.623
	c19.133,0.506,36.898,7.712,50.659,19.743c-23.239-7.857-48.213-6.758-70.799,3.222c-23.914,10.567-42.28,29.814-51.714,54.193
	c-9.442,24.377-8.823,50.973,1.743,74.885c10.565,23.913,29.812,42.28,54.194,51.714c11.344,4.394,23.205,6.615,35.298,6.615
	c0.815,0,1.636-0.009,2.453-0.031c3.571-0.088,6.738-2.316,8.029-5.647c1.29-3.331,0.449-7.11-2.13-9.581
	c-23.48-22.491-31.068-56.596-19.334-86.888c0.001-0.001,0.001-0.002,0.002-0.004c10.547-27.26,34.73-46.259,63.138-50.394
	c-0.443,13.866,0.779,27.776,3.711,41.486c13.078,61.03,59.22,110.317,118.903,128.119c-2.104,8.911-1.033,20.459,8.325,34.235
	c2.746,4.043,5.773,7.602,8.51,10.49c-0.643,0.538-1.295,1.104-1.946,1.699c-8.445,7.699-12.909,16.433-12.909,25.255
	c0,4.884,3.958,8.844,8.844,8.844s8.844-3.96,8.844-8.844c0-3.765,2.487-7.493,5.534-10.623
	c6.511,14.019,21.715,19.467,32.79,19.467c4.885,0,8.844-3.96,8.844-8.844s-3.959-8.844-8.844-8.844
	c-1.871,0-18.277-0.48-18.277-17.098c0-7.606,7.349-17.472,20.693-27.783c9.53-7.363,19.223-12.69,22.189-14.262
	c71.476-14.545,125.887-72.621,135.587-144.963C511.173,276.694,507.774,272.244,502.934,271.594z M90.092,297.207
	c-11.563,29.846-7.758,62.724,9.209,88.729c-3.6-0.848-7.153-1.95-10.647-3.303c-19.975-7.731-35.745-22.777-44.4-42.368
	s-9.163-41.379-1.427-61.352c7.731-19.974,22.777-35.743,42.369-44.401c10.378-4.586,21.372-6.885,32.385-6.885
	c9.778,0,19.573,1.814,28.964,5.448c3.497,1.355,6.869,2.935,10.103,4.733C126.598,245.605,101.645,267.353,90.092,297.207z
	 M318.928,451.846c-5.583-6.702-11.142-15.966-9.303-24.836c9.411,1.779,18.883,2.752,28.379,2.918
	C329.18,437.281,322.814,444.605,318.928,451.846z"/>
<path d="M348.245,284.231c-3.455-3.454-9.054-3.454-12.508,0c-9.996,9.996-30.055,19.441-58.009,27.315
	c-21.8,6.14-40.663,9.082-40.852,9.112c-3.456,0.533-6.273,3.052-7.189,6.427c-0.914,3.375,0.244,6.971,2.957,9.176
	c32.078,26.074,73.902,40.38,117.951,40.379c0.58,0,1.166-0.002,1.746-0.007c37.406-0.321,72.362-11.315,89.057-28.009
	c17.735-17.736,25.151-40.067,20.882-62.885c-4.627-24.731-22.693-46.797-47.15-57.587c-4.467-1.972-9.689,0.052-11.662,4.521
	c-1.972,4.469,0.053,9.689,4.522,11.661c19.194,8.468,33.335,25.579,36.904,44.657c2.237,11.959,1.278,29.844-16.004,47.125
	c-15.448,15.448-49.653,22.598-76.701,22.829c-33.359,0.284-65.363-8.415-91.976-24.779c25.598-5.646,68.156-17.552,88.03-37.427
	C351.699,293.285,351.699,287.685,348.245,284.231z"/>
<circle cx="408.115" cy="96.504" r="8.844"/>
<g>
</g>
<g>
</g>
<g>
</g>
<g>
</g>
<g>
</g>
<g>
</g>
<g>
</g>
<g>
</g>
<g>
</g>
<g>
</g>
<g>
</g>
<g>
</g>
<g>
</g>
<g>
</g>
<g>
</g>
</svg>
